<svg
  width="22"
  height="20"
  viewBox="0 0 22 20"
  fill="none"
  xmlns="http://www.w3.org/2000/svg"
>
  <path
    d="M11.1289 0.875389C11.688 0.314878 12.4462 0 13.2368 0C14.0274 0 14.7856 0.314878 15.3447 0.875389L21.1271 6.67421C21.686 7.23489 22 7.99524 22 8.78804C22 9.58084 21.686 10.3412 21.1271 10.9019L12.9282 19.124C12.3692 19.6847 11.611 19.9998 10.8204 20H6.70752C5.91687 19.9998 5.15866 19.6847 4.59967 19.124L0.872915 15.3867C0.313988 14.826 0 14.0656 0 13.2728C0 12.48 0.313988 11.7197 0.872915 11.159L11.1275 0.875389H11.1289ZM12.1128 17.8279L4.22252 9.91522L1.92833 12.2159C1.64887 12.4963 1.49187 12.8764 1.49187 13.2728C1.49187 13.6692 1.64887 14.0494 1.92833 14.3297L5.65509 18.0671C5.93458 18.3474 6.31369 18.505 6.70901 18.5051H10.8219C11.2172 18.505 11.5963 18.3474 11.8758 18.0671L12.1143 17.8279H12.1128Z"
    fill="#ffdeeb"
  />
</svg>
